<svg width="22" height="22" viewBox="0 0 22 22" fill="none" xmlns="http://www.w3.org/2000/svg">
<path d="M9.70395 9.3467C9.73988 9.25687 9.79368 9.17528 9.8621 9.10686L15.8204 3.14855C16.6574 2.31157 18.0144 2.31157 18.8514 3.14855C19.6884 3.98554 19.6884 5.34257 18.8514 6.17955L12.8931 12.1379C12.8247 12.2063 12.7431 12.2601 12.6533 12.296L8.51161 13.9527C8.22002 14.0693 7.93065 13.7799 8.04729 13.4883L9.70395 9.3467Z" stroke="#9E9CAB" stroke-opacity="0.4" stroke-width="1.5" stroke-linecap="round" stroke-linejoin="round"/>
<path d="M18.1069 6.92437L15.0759 3.89337" stroke="#9E9CAB" stroke-opacity="0.4" stroke-width="1.5" stroke-linecap="round" stroke-linejoin="round"/>
<path d="M10.3125 2.52081H6.18748C4.16244 2.52081 2.52081 4.16244 2.52081 6.18748V15.8125C2.52081 17.8375 4.16244 19.4791 6.18748 19.4791H15.8125C17.8375 19.4791 19.4791 17.8375 19.4791 15.8125V11.6875" stroke="#9E9CAB" stroke-opacity="0.4" stroke-width="1.5" stroke-linecap="round" stroke-linejoin="round"/>
</svg>
